<?xml version="1.0" standalone="no"?>
<!DOCTYPE svg PUBLIC "-//W3C//DTD SVG 20010904//EN"
 "http://www.w3.org/TR/2001/REC-SVG-20010904/DTD/svg10.dtd">
<svg version="1.0" xmlns="http://www.w3.org/2000/svg"
 width="800.000000pt" height="569.000000pt" viewBox="0 0 800.000000 569.000000"
 preserveAspectRatio="xMidYMid meet">

<g transform="translate(0.000000,569.000000) scale(0.100000,-0.100000)"
fill="#000000" stroke="none">
<path d="M2704 5395 c-59 -29 -87 -66 -139 -177 -86 -188 -173 -597 -261
-1233 -23 -169 -28 -236 -28 -430 -1 -191 2 -243 18 -310 24 -105 55 -173 102
-224 57 -64 104 -84 205 -89 143 -7 335 52 564 172 122 64 229 132 273 173 62
59 29 119 -48 86 -306 -131 -568 -203 -741 -203 -72 0 -81 2 -109 28 -47 43
-65 126 -63 307 1 169 21 307 99 654 94 423 203 809 274 972 49 112 58 170 37
221 -31 73 -103 94 -183 53z"/>
<path d="M4555 5084 c-297 -77 -435 -251 -476 -601 -12 -107 4 -285 36 -398 4
-14 -7 -34 -38 -70 -87 -99 -165 -246 -197 -373 -6 -24 -17 -94 -25 -155 -37
-295 60 -600 259 -814 32 -35 63 -63 69 -63 6 0 -8 19 -30 43 -49 50 -162 242
-197 336 -52 137 -60 186 -59 356 0 172 14 246 69 376 43 105 142 249 168 249
7 0 27 -39 46 -87 87 -231 227 -450 358 -559 31 -26 94 -64 138 -86 72 -33 91
-38 157 -38 89 0 129 15 179 67 61 63 82 122 82 233 -1 229 -132 451 -353 599
-176 118 -326 140 -469 69 -28 -15 -46 -18 -52 -12 -17 17 -33 184 -26 279 7
109 25 183 70 280 45 98 102 158 190 200 231 111 497 32 739 -219 298 -310
470 -706 516 -1187 10 -105 7 -128 -32 -236 -52 -143 -129 -282 -249 -444 -26
-37 -48 -69 -48 -72 0 -3 75 -63 168 -133 92 -70 169 -129 171 -131 15 -11
-11 -239 -36 -317 -14 -43 -14 -51 -1 -75 9 -14 19 -41 23 -60 9 -43 15 -34
55 89 85 260 117 575 99 980 -21 494 -33 598 -96 835 -100 374 -353 770 -623
972 -151 114 -282 162 -450 168 -63 2 -124 2 -135 -1z m-9 -974 c90 -31 160
-78 248 -165 137 -136 206 -280 208 -430 1 -165 -83 -249 -213 -211 -200 57
-396 309 -520 664 -38 110 -38 110 67 148 78 28 118 27 210 -6z"/>
<path d="M3360 4292 c-78 -49 -150 -159 -150 -227 0 -48 29 -75 79 -75 48 0
99 33 168 108 28 31 54 55 56 52 3 -3 -1 -36 -9 -75 -26 -136 -13 -242 31
-259 29 -11 70 -6 94 10 12 9 52 61 89 117 36 55 90 126 119 157 50 55 64 80
44 80 -24 0 -117 -89 -181 -172 -39 -51 -82 -101 -95 -111 -23 -17 -24 -17
-36 4 -14 27 -7 89 28 233 32 129 28 141 -40 141 -29 0 -52 6 -65 18 -35 32
-82 32 -132 -1z m74 -103 c-19 -22 -98 -79 -108 -79 -25 0 32 73 78 101 38 23
58 9 30 -22z"/>
<path d="M7405 4056 c-160 -39 -298 -174 -349 -341 -11 -33 -20 -62 -22 -64
-2 -2 -25 16 -51 39 -233 207 -594 129 -731 -157 -36 -76 -37 -81 -37 -193 0
-113 17 -195 48 -225 7 -7 8 -3 3 10 -34 95 -26 218 20 314 36 73 119 155 191
189 52 24 69 27 168 27 104 0 114 -2 176 -32 117 -58 197 -167 220 -302 26
-147 -52 -325 -178 -402 -51 -32 -33 -34 27 -4 153 77 250 239 250 413 -1 96
-13 151 -51 225 -16 32 -29 62 -29 68 0 25 107 186 163 246 68 72 110 97 180
107 123 18 217 -108 161 -216 -12 -23 -13 -29 -2 -26 7 2 24 26 37 52 23 45
23 51 11 100 -7 28 -15 58 -18 66 -9 24 38 -21 54 -52 8 -15 14 -46 14 -70 0
-41 -8 -58 -57 -128 -17 -25 -17 -25 2 -10 45 33 68 57 86 92 54 105 -15 234
-144 272 -64 18 -74 19 -142 2z"/>
<path d="M1662 3459 c-70 -13 -206 -57 -293 -94 -518 -218 -864 -760 -986
-1545 -24 -158 -24 -456 1 -595 87 -480 301 -715 651 -715 143 0 335 48 499
124 92 42 303 170 431 259 155 109 295 220 295 235 0 26 -30 23 -67 -6 -62
-49 -321 -216 -418 -269 -126 -70 -260 -129 -399 -175 -120 -40 -120 -40 -245
-36 -147 6 -206 24 -300 93 -127 93 -209 254 -257 500 -26 134 -24 424 5 614
54 352 178 698 334 931 61 91 190 227 273 286 143 102 352 174 519 177 108 2
148 -14 172 -70 20 -50 12 -97 -48 -267 -28 -80 -49 -157 -49 -180 0 -126 116
-111 223 29 86 114 187 354 187 446 0 126 -103 230 -255 258 -68 13 -210 13
-273 0z"/>
<path d="M3165 2982 c-17 -11 -42 -34 -56 -53 -70 -92 -212 -368 -273 -532
-36 -96 -194 -281 -286 -335 -38 -23 -57 -27 -122 -27 -47 0 -82 -5 -89 -12
-7 -7 -21 -45 -31 -84 -10 -40 -29 -92 -44 -116 -29 -51 -82 -113 -95 -113
-17 0 -9 100 15 175 13 42 39 101 57 131 27 44 38 54 58 52 19 -2 26 3 32 22
21 73 2 120 -49 120 -66 0 -196 -196 -227 -345 -36 -172 -2 -283 91 -301 89
-17 176 77 244 263 24 66 32 79 56 87 101 30 158 62 224 123 39 36 73 64 75
61 2 -2 -2 -28 -10 -58 -96 -369 -43 -775 117 -903 51 -41 132 -49 166 -17 44
41 18 114 -60 170 -52 38 -65 61 -83 148 -64 299 73 765 342 1167 55 83 109
166 118 185 23 43 25 118 5 154 -29 55 -116 73 -175 38z"/>
<path d="M5050 2554 c-19 -14 -103 -60 -186 -103 -167 -87 -336 -192 -459
-284 -118 -89 -146 -117 -139 -141 4 -12 8 -23 10 -25 2 -2 38 28 81 66 132
117 260 204 546 374 60 35 128 81 150 101 48 43 47 48 -3 12z"/>
<path d="M7034 2381 c-134 -61 -119 -262 22 -300 112 -30 223 80 193 191 -13
52 -63 105 -107 118 -50 13 -60 13 -108 -9z m126 -36 c36 -19 60 -62 60 -110
0 -75 -51 -125 -128 -125 -45 0 -84 26 -107 70 -28 55 -12 117 41 159 32 25
92 28 134 6z"/>
<path d="M7032 2238 c2 -66 6 -83 18 -83 10 0 16 12 18 33 4 42 25 41 51 -3
20 -34 51 -48 51 -22 0 6 -8 26 -18 42 -17 26 -17 33 -5 52 11 17 12 27 3 42
-9 17 -20 21 -66 21 l-55 0 3 -82z m78 32 c0 -13 -7 -20 -20 -20 -13 0 -20 7
-20 20 0 13 7 20 20 20 13 0 20 -7 20 -20z"/>
<path d="M4822 2313 l-33 -25 41 -20 c43 -21 83 -78 94 -133 6 -26 -6 -84 -28
-136 -5 -11 8 -26 48 -52 31 -20 60 -38 65 -39 18 -5 230 146 228 162 -2 12
-296 220 -368 260 -10 6 -25 1 -47 -17z"/>
<path d="M3745 2262 c-40 -19 -178 -124 -204 -155 -12 -16 -15 -15 -41 3 -39
28 -64 25 -93 -9 -44 -53 -117 -289 -117 -381 0 -37 39 -80 72 -80 41 0 65 27
117 136 59 123 100 187 172 270 56 64 136 127 151 118 11 -7 4 -57 -28 -218
-35 -175 -31 -216 21 -216 26 0 47 23 115 125 58 86 155 188 173 182 6 -2 23
-42 37 -88 14 -47 32 -94 40 -105 57 -76 149 -71 274 15 l43 30 0 -92 c0 -106
19 -161 72 -214 44 -44 100 -59 170 -44 76 15 147 60 269 171 147 133 274 240
285 240 5 0 6 -8 2 -17 -4 -10 -9 -52 -12 -93 -5 -67 -3 -78 17 -102 17 -22
30 -28 59 -28 53 0 79 30 127 141 21 50 44 95 51 100 13 11 14 8 33 -81 44
-198 170 -213 379 -45 52 41 98 75 102 75 5 0 9 -9 9 -19 0 -52 41 -81 113
-81 58 0 115 39 213 144 l76 81 -5 -40 c-4 -22 -13 -80 -21 -130 -9 -49 -16
-107 -16 -129 0 -133 90 -204 181 -143 21 13 68 74 120 152 48 72 118 166 158
208 39 42 71 81 71 86 0 22 -20 19 -61 -11 -67 -49 -138 -123 -219 -233 -72
-96 -120 -138 -137 -121 -20 20 -6 172 27 296 18 69 35 138 37 153 10 52 -46
84 -99 56 -17 -9 -25 -7 -47 10 -44 36 -91 53 -127 46 -55 -10 -146 -85 -198
-164 -41 -61 -59 -78 -139 -127 -161 -100 -261 -139 -291 -115 -9 8 -17 42
-21 89 -9 120 -14 139 -41 172 -31 36 -72 40 -116 9 -16 -12 -31 -20 -33 -18
-2 3 1 23 8 46 14 53 -8 93 -51 93 -40 0 -68 -34 -101 -121 -28 -72 -31 -76
-107 -128 -44 -29 -128 -90 -189 -136 -206 -154 -261 -184 -336 -185 -107 0
-146 101 -98 255 19 61 22 66 42 60 54 -17 85 -16 125 4 57 29 94 81 100 140
4 45 1 52 -31 87 -31 34 -41 39 -79 38 -79 -2 -141 -51 -207 -165 -32 -55 -45
-67 -106 -101 -39 -21 -92 -45 -118 -54 -67 -22 -91 -6 -107 73 -26 132 -51
173 -107 173 -47 0 -91 -29 -153 -98 -27 -30 -52 -53 -56 -50 -3 3 0 33 7 67
32 166 -35 249 -156 193z m2605 -177 c0 -22 -155 -144 -168 -131 -15 16 68
111 123 139 32 16 45 14 45 -8z m-1634 -30 c-26 -19 -42 -19 -26 0 7 8 20 15
29 15 13 -1 13 -3 -3 -15z"/>
<path d="M4033 1809 c-77 -102 -115 -164 -168 -274 -66 -135 -98 -235 -125
-379 -26 -138 -43 -192 -87 -280 -44 -87 -149 -258 -224 -364 -33 -45 -59 -85
-59 -88 0 -9 50 29 125 96 39 34 117 95 175 135 238 164 350 205 695 250 144
19 406 101 560 175 256 124 450 291 601 520 45 68 46 76 19 116 -14 20 -25 41
-25 45 0 19 -21 8 -30 -16 -5 -13 -27 -42 -49 -63 l-40 -39 30 -22 29 -22 -39
-57 c-22 -31 -50 -69 -63 -83 -28 -33 -200 -185 -248 -220 -58 -42 -158 -92
-174 -86 -9 4 -125 86 -258 184 -449 328 -501 365 -514 370 -29 11 -125 -90
-110 -116 4 -5 167 -123 363 -262 283 -201 352 -254 337 -260 -10 -4 -48 -18
-84 -32 -36 -13 -103 -32 -150 -41 -47 -10 -120 -26 -164 -37 -43 -10 -100
-19 -127 -19 -132 0 -359 -83 -545 -199 -27 -16 -50 -28 -52 -27 -1 2 21 43
51 92 89 146 106 187 122 287 19 125 31 177 67 282 37 107 111 252 181 353 49
71 50 74 36 104 l-15 30 -41 -53z"/>
</g>
</svg>
